<?xml version="1.0" standalone="no"?>
<!DOCTYPE svg PUBLIC "-//W3C//DTD SVG 20010904//EN"
 "http://www.w3.org/TR/2001/REC-SVG-20010904/DTD/svg10.dtd">
<svg version="1.0" xmlns="http://www.w3.org/2000/svg"
 width="512.000000pt" height="512.000000pt" viewBox="0 0 512.000000 512.000000"
 preserveAspectRatio="xMidYMid meet">

<g transform="translate(0.000000,512.000000) scale(0.100000,-0.100000)"
fill="#000000" stroke="none">
<path d="M891 5109 c-25 -5 -78 -24 -119 -44 -145 -69 -256 -216 -281 -376
-15 -89 -15 -4169 0 -4258 33 -206 206 -383 410 -421 37 -7 604 -9 1695 -8
l1639 3 60 24 c178 71 306 224 334 401 7 43 11 579 11 1610 0 1490 -1 1546
-19 1585 -24 50 -1442 1469 -1484 1485 -35 13 -2180 12 -2246 -1z m2029 -941
c0 -618 0 -633 21 -674 12 -26 36 -53 57 -66 l37 -23 643 -3 642 -3 -2 -1467
c-3 -1466 -3 -1467 -24 -1507 -11 -22 -40 -53 -63 -70 l-43 -30 -1615 -3
c-1565 -2 -1616 -2 -1657 17 -47 20 -87 66 -105 120 -16 49 -16 4153 0 4202
18 53 58 99 103 120 39 18 86 19 1024 19 l982 0 0 -632z m750 -23 l425 -425
-428 0 -427 0 0 425 c0 234 1 425 3 425 1 0 193 -191 427 -425z"/>
<path d="M1424 2561 c-95 -58 -107 -180 -25 -254 54 -49 106 -56 169 -25 63
31 92 76 92 142 0 94 -62 156 -155 156 -32 0 -62 -7 -81 -19z"/>
<path d="M2050 2561 c-53 -27 -82 -84 -77 -149 4 -60 27 -97 78 -127 33 -19
55 -20 789 -23 415 -2 774 0 798 3 57 8 118 62 132 116 19 69 -17 151 -80 184
-25 13 -141 15 -817 15 -748 0 -790 -1 -823 -19z"/>
<path d="M1434 1436 c-61 -27 -101 -108 -85 -177 12 -53 38 -86 87 -110 108
-52 224 25 224 148 0 113 -118 186 -226 139z"/>
<path d="M2049 1428 c-54 -30 -83 -87 -77 -150 6 -61 31 -96 88 -125 l44 -23
767 0 c517 0 777 3 796 11 43 16 92 69 104 111 19 71 -22 157 -87 184 -27 12
-173 14 -816 14 -778 0 -783 -1 -819 -22z"/>
</g>
</svg>
