<?xml version="1.0" standalone="no"?>
<!DOCTYPE svg PUBLIC "-//W3C//DTD SVG 20010904//EN"
 "http://www.w3.org/TR/2001/REC-SVG-20010904/DTD/svg10.dtd">
<svg version="1.0" xmlns="http://www.w3.org/2000/svg"
 width="512.000000pt" height="512.000000pt" viewBox="0 0 512.000000 512.000000"
 preserveAspectRatio="xMidYMid meet">

<g transform="translate(0.000000,512.000000) scale(0.100000,-0.100000)"
fill="#000000" stroke="none">
<path d="M2408 5110 c-229 -36 -428 -140 -583 -302 -126 -131 -196 -251 -252
-433 l-28 -90 -3 -1007 c-3 -961 -2 -1011 17 -1101 80 -393 393 -707 785 -788
114 -23 302 -25 416 -3 387 73 685 354 792 745 l23 84 0 1035 0 1035 -28 90
c-56 182 -126 302 -252 433 -188 198 -419 299 -700 307 -71 2 -156 0 -187 -5z
m332 -355 c214 -57 392 -224 465 -435 l30 -85 3 -962 c3 -1076 5 -1043 -67
-1188 -117 -236 -344 -375 -611 -375 -266 0 -493 138 -610 372 -73 147 -71
107 -68 1188 l3 965 28 82 c34 102 108 214 190 288 71 65 211 137 297 154 30
6 64 13 75 15 37 9 209 -3 265 -19z"/>
<path d="M952 2543 c-85 -41 -107 -105 -92 -265 52 -551 302 -1030 678 -1298
99 -71 289 -167 406 -205 95 -32 274 -70 374 -80 l72 -7 0 -174 0 -173 -458
-3 -459 -3 -36 -28 c-49 -37 -67 -75 -67 -140 0 -68 28 -113 90 -145 l44 -22
1056 0 1056 0 44 23 c62 31 90 76 90 144 0 65 -18 103 -67 140 l-36 28 -459 3
-458 3 0 173 0 174 68 7 c114 12 270 45 379 80 610 200 1010 757 1083 1508 13
134 4 177 -51 229 -60 57 -139 63 -210 15 -53 -36 -66 -70 -79 -202 -57 -624
-365 -1066 -853 -1226 -153 -50 -296 -70 -507 -70 -410 0 -701 100 -936 323
-107 101 -185 210 -260 363 -95 194 -148 402 -169 657 -8 93 -31 133 -95 166
-52 26 -102 28 -148 5z"/>
</g>
</svg>
