<?xml version="1.0" standalone="no"?>
<!DOCTYPE svg PUBLIC "-//W3C//DTD SVG 20010904//EN"
 "http://www.w3.org/TR/2001/REC-SVG-20010904/DTD/svg10.dtd">
<svg version="1.0" xmlns="http://www.w3.org/2000/svg"
 width="512.000000pt" height="512.000000pt" viewBox="0 0 512.000000 512.000000"
 preserveAspectRatio="xMidYMid meet">

<g transform="translate(0.000000,512.000000) scale(0.100000,-0.100000)"
fill="#000000" stroke="none">
<path d="M660 4704 c-233 -50 -436 -255 -485 -489 -22 -105 -22 -2565 0 -2670
37 -179 171 -353 335 -434 152 -74 75 -71 1510 -71 l1285 -1 393 -314 c288
-230 402 -316 427 -321 50 -9 100 3 136 33 56 47 59 67 59 348 l0 255 33 0
c65 1 173 31 256 72 167 82 298 251 336 433 22 105 22 2565 0 2670 -50 238
-252 440 -490 490 -102 21 -3695 21 -3795 -1z m3795 -334 c64 -31 124 -91 155
-155 l25 -50 0 -1285 0 -1285 -23 -45 c-35 -72 -76 -114 -144 -150 -62 -33
-66 -34 -215 -39 -164 -6 -180 -12 -227 -75 -19 -25 -21 -44 -24 -207 -2 -98
-5 -179 -8 -179 -2 0 -116 89 -252 198 -136 109 -265 211 -286 227 l-39 30
-1351 5 -1351 5 -51 27 c-76 40 -107 70 -145 140 l-34 63 0 1285 0 1285 34 63
c47 86 116 141 206 163 17 4 851 6 1855 6 l1825 -2 50 -25z"/>
<path d="M1215 3666 c-67 -29 -105 -106 -90 -183 9 -47 71 -110 117 -118 18
-3 623 -4 1344 -3 l1311 3 37 29 c90 68 86 190 -8 260 -27 21 -31 21 -1354 23
-1088 2 -1332 0 -1357 -11z"/>
<path d="M1215 3026 c-67 -29 -105 -106 -90 -183 9 -47 71 -110 117 -118 18
-3 623 -4 1344 -3 l1311 3 37 29 c90 68 86 190 -8 260 -27 21 -31 21 -1354 23
-1088 2 -1332 0 -1357 -11z"/>
<path d="M1695 2386 c-67 -29 -105 -106 -90 -183 9 -47 71 -110 117 -118 18
-3 515 -4 1104 -3 l1071 3 37 29 c90 68 86 190 -8 260 -27 21 -34 21 -1114 23
-888 2 -1093 0 -1117 -11z"/>
</g>
</svg>
